<svg width="56" height="58" viewBox="0 0 56 58" fill="none" xmlns="http://www.w3.org/2000/svg">
<g clip-path="url(#clip0_3975_1322)" filter="url(#filter0_d_3975_1322)">
<path d="M35 14H21C17.134 14 14 17.134 14 21V35C14 38.866 17.134 42 21 42H35C38.866 42 42 38.866 42 35V21C42 17.134 38.866 14 35 14Z" stroke="white" stroke-width="2" stroke-linecap="round" stroke-linejoin="round"/>
<path d="M21 42V49H35V42" stroke="white" stroke-width="2" stroke-linecap="round" stroke-linejoin="round"/>
<path d="M21 14V7H35V14" stroke="white" stroke-width="2" stroke-linecap="round" stroke-linejoin="round"/>
<line x1="24" y1="23" x2="24" y2="34" stroke="white" stroke-width="2" stroke-linecap="round"/>
<line x1="28" y1="28" x2="28" y2="34" stroke="white" stroke-width="2" stroke-linecap="round"/>
<line x1="32" y1="26" x2="32" y2="34" stroke="white" stroke-width="2" stroke-linecap="round"/>
</g>
<defs>
<filter id="filter0_d_3975_1322" x="-4" y="0" width="64" height="64" filterUnits="userSpaceOnUse" color-interpolation-filters="sRGB">
<feFlood flood-opacity="0" result="BackgroundImageFix"/>
<feColorMatrix in="SourceAlpha" type="matrix" values="0 0 0 0 0 0 0 0 0 0 0 0 0 0 0 0 0 0 127 0" result="hardAlpha"/>
<feOffset dy="4"/>
<feGaussianBlur stdDeviation="2"/>
<feComposite in2="hardAlpha" operator="out"/>
<feColorMatrix type="matrix" values="0 0 0 0 0 0 0 0 0 0 0 0 0 0 0 0 0 0 0.25 0"/>
<feBlend mode="normal" in2="BackgroundImageFix" result="effect1_dropShadow_3975_1322"/>
<feBlend mode="normal" in="SourceGraphic" in2="effect1_dropShadow_3975_1322" result="shape"/>
</filter>
<clipPath id="clip0_3975_1322">
<rect width="56" height="56" fill="white"/>
</clipPath>
</defs>
</svg>
